<svg xmlns="http://www.w3.org/2000/svg" viewBox="0 0 611 600" fill="#02A78E" role="img" aria-label="CENOFEX"><path d="M325.83 580.5C339.45 579.48 350.99 577.92 363.33 575.45C368.55 574.4 377.37 572.36 380.33 571.51C381.16 571.27 382.81 570.82 384.0 570.51C385.19 570.19 386.77 569.75 387.5 569.52C388.23 569.29 389.66 568.85 390.67 568.55C396.62 566.76 402.53 564.64 402.86 564.18C403.08 563.89 403.2 563.02 403.13 562.24C401.99 548.38 399.27 522.39 397.51 508.5C396.3 498.98 395.94 496.24 395.48 492.83C395.2 490.82 394.75 487.52 394.47 485.5C393.93 481.51 393.21 476.54 392.5 471.83C392.26 470.18 391.81 467.18 391.51 465.17C391.21 463.15 390.76 460.22 390.51 458.67C390.25 457.11 389.8 454.26 389.5 452.33C389.2 450.41 388.74 447.63 388.49 446.17C388.23 444.7 387.79 442.11 387.51 440.42C386.46 434.1 385.95 431.09 385.48 428.42C385.21 426.91 384.76 424.36 384.48 422.75C382.52 411.69 381.16 404.33 379.5 396.0C378.61 391.5 377.18 384.75 376.47 381.67C376.19 380.47 375.74 378.53 375.47 377.33C375.19 376.14 374.74 374.19 374.47 373.0C373.87 370.4 373.13 367.44 372.51 365.17C372.26 364.25 371.8 362.53 371.49 361.33C369.66 354.32 366.8 345.81 364.49 340.5C363.45 338.13 359.57 330.33 358.51 328.5C357.87 327.4 357.19 326.2 356.99 325.83C355.37 322.79 350.58 316.0 347.02 311.7C339.85 303.03 330.13 294.43 321.89 289.47C321.0 288.94 319.88 288.25 319.39 287.94C318.9 287.63 317.75 286.97 316.83 286.47C302.33 278.55 288.16 274.44 268.67 272.48C262.34 271.85 245.43 271.94 239.33 272.63C229.03 273.81 214.92 276.15 209.0 277.67C208.36 277.83 206.78 278.2 205.5 278.49C201.09 279.5 184.21 283.78 179.33 285.14C178.33 285.42 177.12 285.74 176.67 285.86C176.21 285.97 175.08 286.28 174.17 286.55C171.98 287.18 169.6 287.86 167.33 288.51C166.33 288.79 164.75 289.25 163.83 289.52C151.29 293.2 148.3 294.09 147.17 294.46C146.43 294.7 145.01 295.14 144.0 295.44C142.99 295.74 140.82 296.42 139.17 296.95C137.52 297.47 134.59 298.39 132.67 299.0C124.35 301.6 90.5 312.99 84.5 315.2C83.77 315.47 82.12 316.05 80.83 316.49C79.55 316.93 77.67 317.61 76.67 318.0C75.66 318.4 74.46 318.84 74.0 319.0C73.54 319.16 72.34 319.61 71.33 320.0C70.33 320.39 69.12 320.84 68.67 320.99C68.21 321.13 67.46 321.41 67.0 321.59C66.54 321.78 65.57 322.16 64.83 322.44C59.1 324.65 55.13 326.2 53.0 327.06C51.62 327.62 49.38 328.52 48.0 329.07C46.62 329.63 45.05 330.27 44.5 330.52C43.95 330.76 38.85 332.92 33.17 335.33C27.48 337.74 22.63 339.91 22.38 340.15C22.0 340.52 22.02 341.06 22.47 343.55C22.76 345.17 23.24 347.85 23.53 349.5C24.37 354.32 25.1 357.86 26.51 363.92C27.45 367.95 28.92 373.71 29.48 375.5C29.71 376.23 30.16 377.73 30.49 378.83C31.59 382.56 32.09 384.16 32.5 385.33C32.72 385.97 33.09 387.03 33.32 387.67C33.54 388.31 33.85 389.28 34.0 389.83C34.15 390.38 34.6 391.66 34.99 392.67C35.39 393.68 36.07 395.59 36.52 396.91C36.96 398.24 37.46 399.59 37.63 399.91C37.8 400.24 38.19 401.18 38.5 402.0C38.81 402.82 39.26 403.95 39.5 404.5C39.73 405.05 40.49 406.85 41.17 408.5C41.85 410.15 42.78 412.32 43.23 413.33C44.24 415.57 52.09 431.31 53.13 433.17C53.54 433.9 54.37 435.4 54.98 436.5C61.67 448.52 72.21 463.96 81.13 474.83C93.91 490.41 108.92 505.36 124.34 517.86C132.63 524.59 145.32 533.48 154.27 538.84C154.58 539.03 155.43 539.56 156.17 540.03C156.9 540.5 157.72 540.98 158.0 541.11C158.28 541.23 158.79 541.52 159.15 541.75C160.31 542.49 162.11 543.52 164.5 544.82C165.78 545.52 167.66 546.55 168.67 547.11C170.7 548.23 180.46 553.12 183.33 554.45C186.12 555.74 197.72 560.7 198.67 561.01C199.12 561.16 200.33 561.61 201.33 562.0C202.34 562.39 203.54 562.84 204.0 563.0C204.46 563.16 205.66 563.6 206.67 563.99C208.67 564.76 217.42 567.68 220.33 568.55C221.34 568.86 222.77 569.29 223.5 569.52C224.23 569.75 225.81 570.19 227.0 570.51C228.19 570.82 229.84 571.27 230.67 571.5C231.49 571.74 233.22 572.17 234.5 572.48C235.78 572.78 237.66 573.24 238.67 573.49C241.35 574.16 248.81 575.71 253.0 576.47C263.53 578.37 272.2 579.46 284.67 580.47C292.64 581.12 317.36 581.14 325.83 580.5ZM450.57 542.5C452.0 541.67 453.39 540.85 453.67 540.66C453.94 540.48 454.47 540.18 454.83 539.99C455.2 539.81 455.9 539.4 456.4 539.08C456.89 538.76 458.62 537.68 460.23 536.68C477.15 526.18 493.96 512.72 509.37 497.35C516.66 490.07 519.77 486.78 524.98 480.83C531.81 473.04 543.63 457.0 549.67 447.33C551.52 444.36 551.62 444.2 551.99 443.5C552.18 443.13 552.64 442.38 553.0 441.83C553.36 441.28 553.77 440.61 553.9 440.33C554.03 440.06 554.75 438.78 555.5 437.5C556.26 436.22 556.99 434.94 557.12 434.67C557.25 434.39 557.87 433.27 558.49 432.17C561.3 427.18 568.32 412.66 570.33 407.67C570.74 406.66 571.27 405.38 571.51 404.83C571.74 404.28 572.16 403.23 572.44 402.5C572.71 401.77 573.27 400.34 573.69 399.33C574.1 398.32 574.63 396.9 574.86 396.17C575.1 395.43 575.6 394.01 575.99 393.0C576.6 391.4 577.76 387.97 579.48 382.67C579.96 381.19 581.56 375.76 582.48 372.5C583.84 367.64 586.36 356.47 587.47 350.33C590.73 332.22 591.83 319.61 591.83 300.33C591.83 282.5 591.13 273.26 588.48 256.0C587.8 251.6 586.3 243.75 585.48 240.33C585.24 239.33 584.79 237.38 584.48 236.0C584.17 234.62 583.72 232.83 583.5 232.0C583.27 231.17 582.82 229.53 582.5 228.33C581.88 226.03 581.28 223.88 580.48 221.17C579.73 218.61 575.78 206.73 575.0 204.67C574.61 203.66 574.1 202.31 573.86 201.67C573.61 201.03 573.23 200.01 573.01 199.42C572.53 198.15 572.49 198.15 566.83 198.67C545.26 200.64 528.35 203.48 513.83 207.55C509.79 208.68 502.77 210.9 501.0 211.6C500.54 211.78 499.57 212.15 498.83 212.43C496.93 213.14 492.4 214.99 490.83 215.69C485.52 218.04 482.73 219.39 479.99 220.91C478.99 221.47 477.57 222.25 476.83 222.65C476.1 223.05 475.05 223.67 474.5 224.02C473.95 224.37 473.28 224.76 473.01 224.89C471.94 225.4 466.31 229.25 463.17 231.62C447.49 243.42 436.77 257.05 429.53 274.41C429.28 275.01 428.83 276.07 428.54 276.76C428.24 277.46 428.0 278.24 428.0 278.5C428.0 278.76 427.79 279.47 427.54 280.07C426.89 281.61 425.37 287.08 424.55 290.83C422.9 298.34 422.22 302.42 421.63 308.33C421.14 313.22 421.14 321.82 421.62 326.33C421.82 328.26 422.22 332.23 422.5 335.17C424.65 357.32 425.03 360.77 426.49 371.17C426.74 373.0 427.19 376.22 427.49 378.33C427.78 380.44 428.23 383.67 428.49 385.5C429.54 392.99 430.0 396.35 430.5 400.0C430.78 402.11 431.23 405.33 431.49 407.17C432.16 411.89 433.53 422.57 434.48 430.42C435.75 440.89 436.0 443.02 437.5 456.33C438.51 465.35 440.58 484.23 441.49 492.83C441.79 495.58 442.24 499.78 442.5 502.17C442.76 504.55 443.21 508.82 443.5 511.67C443.79 514.51 444.24 518.78 444.5 521.17C444.76 523.55 445.21 527.75 445.5 530.5C446.59 540.76 447.07 544.0 447.54 544.0C447.78 544.0 449.15 543.32 450.57 542.5ZM24.83 280.5C26.67 279.83 28.62 279.15 29.17 279.0C29.72 278.84 31.67 278.17 33.5 277.51C35.33 276.85 37.88 275.95 39.17 275.51C40.45 275.07 43.68 273.95 46.33 273.01C48.99 272.08 52.89 270.72 55.0 269.99C57.11 269.27 60.33 268.14 62.17 267.48C64.0 266.82 65.95 266.15 66.5 266.0C67.05 265.84 69.0 265.17 70.83 264.51C72.67 263.85 75.22 262.95 76.5 262.5C77.78 262.06 81.01 260.94 83.67 260.01C86.33 259.08 90.23 257.72 92.33 257.0C94.44 256.27 97.67 255.15 99.5 254.5C101.33 253.85 104.56 252.72 106.67 252.0C110.37 250.73 117.15 248.37 123.0 246.32C124.56 245.77 127.56 244.73 129.67 244.0C131.78 243.28 135.0 242.15 136.83 241.49C138.67 240.83 140.62 240.16 141.17 240.0C141.72 239.84 143.67 239.17 145.5 238.51C147.33 237.85 149.88 236.95 151.17 236.51C152.45 236.07 155.67 234.95 158.33 234.01C160.99 233.08 164.89 231.72 167.0 231.0C169.11 230.28 172.33 229.15 174.17 228.5C176.0 227.85 179.9 226.5 182.83 225.51C185.77 224.51 188.99 223.38 190.0 223.0C191.01 222.61 192.88 221.94 194.17 221.51C196.97 220.55 198.71 219.88 203.33 218.0C205.26 217.22 207.28 216.4 207.83 216.18C210.6 215.06 217.82 211.74 220.0 210.57C222.32 209.32 225.96 207.3 226.83 206.77C227.2 206.55 227.8 206.2 228.17 206.01C228.53 205.82 229.24 205.4 229.73 205.08C230.23 204.76 231.58 203.91 232.73 203.19C236.28 200.98 244.85 194.42 248.43 191.18C257.76 182.73 265.35 173.76 270.44 165.17C271.3 163.7 272.16 162.28 272.33 162.0C272.71 161.4 276.87 152.92 277.48 151.5C278.64 148.83 280.38 143.98 281.19 141.17C282.48 136.72 283.42 132.6 284.33 127.5C284.87 124.42 285.65 114.22 285.63 110.5C285.55 99.79 284.31 90.0 281.0 74.17C280.84 73.43 280.39 71.63 279.98 70.17C279.58 68.7 279.13 66.98 278.98 66.33C278.83 65.69 278.39 64.12 278.0 62.83C277.62 61.55 277.17 60.05 277.02 59.5C276.56 57.85 273.76 49.63 273.0 47.67C272.6 46.66 272.16 45.46 272.01 45.0C271.87 44.54 271.59 43.79 271.41 43.33C271.22 42.88 270.85 41.9 270.57 41.17C269.91 39.42 268.05 34.79 267.45 33.42C267.19 32.83 266.76 31.82 266.49 31.17C264.61 26.69 262.75 22.75 262.39 22.54C262.22 22.43 261.27 22.48 260.29 22.64C259.3 22.81 257.0 23.2 255.17 23.5C249.84 24.39 241.38 26.16 235.83 27.54C227.4 29.65 220.0 31.79 214.0 33.86C212.62 34.33 211.05 34.84 210.5 35.0C208.79 35.48 199.05 39.15 195.5 40.65C195.13 40.81 193.48 41.49 191.83 42.17C187.03 44.17 183.97 45.59 176.0 49.57C169.04 53.04 166.23 54.52 162.83 56.49C162.1 56.91 160.9 57.59 160.17 58.0C159.43 58.41 157.44 59.59 155.74 60.62C154.03 61.65 152.38 62.65 152.07 62.84C144.69 67.24 129.51 78.11 122.0 84.38C112.84 92.02 108.86 95.67 100.42 104.17C90.27 114.39 82.26 123.64 74.13 134.5C70.9 138.81 70.57 139.28 65.52 146.86C61.63 152.69 62.1 151.96 58.77 157.49C55.32 163.21 55.95 162.12 53.0 167.5C49.72 173.47 49.33 174.19 49.04 174.83C48.88 175.2 47.77 177.53 46.58 180.0C45.39 182.47 44.12 185.17 43.75 186.0C43.38 186.83 42.7 188.33 42.24 189.33C41.78 190.34 41.08 191.99 40.67 193.0C40.26 194.01 39.73 195.28 39.49 195.83C39.26 196.38 38.84 197.43 38.57 198.17C38.3 198.9 37.84 200.1 37.56 200.83C35.18 207.0 34.39 209.15 34.01 210.5C33.74 211.45 33.45 212.3 32.49 215.0C32.26 215.64 31.81 217.07 31.49 218.17C31.16 219.27 30.71 220.77 30.48 221.5C30.25 222.23 29.81 223.81 29.49 225.0C29.18 226.19 28.73 227.84 28.5 228.67C26.29 236.55 23.98 247.38 22.54 256.67C20.9 267.16 19.44 281.33 19.95 281.84C20.23 282.12 20.9 281.93 24.83 280.5ZM498.33 159.33C521.58 158.33 549.76 155.68 550.23 154.44C550.33 154.21 549.67 152.92 548.78 151.59C547.89 150.26 547.11 149.04 547.04 148.88C546.84 148.4 542.04 141.45 539.29 137.63C519.44 110.17 493.91 85.78 465.17 66.81C462.97 65.36 460.91 64.02 460.59 63.84C460.28 63.65 457.88 62.2 455.26 60.62C450.53 57.76 449.37 57.08 446.24 55.39C445.34 54.9 443.68 54.0 442.55 53.38C439.76 51.87 431.36 47.66 428.5 46.34C420.31 42.58 419.01 42.0 418.69 42.0C418.52 42.0 417.96 41.78 417.44 41.52C416.14 40.86 410.94 38.77 408.67 38.0C408.21 37.84 407.01 37.4 406.0 37.0C404.03 36.23 392.82 32.44 391.17 31.98C390.62 31.83 389.12 31.39 387.83 31.01C383.6 29.75 381.85 29.26 380.67 29.0C380.03 28.86 378.07 28.38 376.33 27.92C368.54 25.89 358.53 23.88 349.5 22.53C342.04 21.42 328.67 19.96 328.26 20.21C327.86 20.46 327.95 21.59 328.54 23.46C328.83 24.4 329.26 25.84 329.49 26.67C331.57 34.15 336.25 48.82 338.0 53.33C338.4 54.34 338.84 55.54 338.99 56.0C339.13 56.46 339.41 57.21 339.59 57.67C339.78 58.12 340.15 59.1 340.43 59.83C341.62 63.01 343.58 67.83 344.42 69.67C344.71 70.31 345.38 71.81 345.89 72.99C347.09 75.75 352.27 86.16 353.86 89.0C363.43 106.13 375.9 120.3 391.73 132.03C401.58 139.33 413.13 145.76 423.67 149.82C425.41 150.49 427.18 151.18 427.61 151.36C428.83 151.86 431.85 152.84 435.5 153.92C438.52 154.82 440.06 155.24 444.17 156.29C446.22 156.82 451.85 157.89 455.0 158.35C463.01 159.52 483.33 159.98 498.33 159.33Z"/></svg>