<svg xmlns="http://www.w3.org/2000/svg" viewBox="0 0 1425.94 264.42"><path fill="#212121" d="M497.01 117.36C486.42 124.71 479.87 135.15 478.84 147.92L478.83 260.24L413.93 260.25L413.9 57.93L478.46 57.85L479.04 78.64C491.78 72.72 504.66 61.61 522.01 58.91C547.66 54.92 575.09 62.23 595.29 79.31C609.55 91.36 615.56 109.34 616.42 128.15L616.38 260.31L551.34 260.29L551.32 145.02C549.97 134.21 545.49 123.98 537.19 117.39C525.48 108.09 509.44 108.72 497.01 117.36ZM336.21 131.67C333.63 109.88 317.53 99.82 299.4 101.16C281.59 100.55 265.85 113.82 265.85 131.88L336.21 131.67M287.18 204.41C309.08 212.87 333.31 206.98 349.37 186.73L395.98 210.51C373.15 249.92 332.32 263.06 289.4 259.84C262.62 257.83 239.88 245.21 221.82 225.15C198.92 199.72 191.03 164.28 201.24 130.31C210.98 97.88 236.97 72.34 268.86 62.59C294.42 54.78 321.46 56.82 345.52 67.18C385.89 84.55 401.83 123.63 399.06 168.33L264.12 168.35C262.86 184.85 272.01 198.54 287.18 204.41ZM1117.43 131.67C1114.85 109.88 1098.75 99.82 1080.63 101.16C1062.81 100.55 1047.07 113.82 1047.07 131.88L1117.43 131.67M1068.4 204.41C1090.3 212.87 1114.53 206.98 1130.6 186.73L1177.2 210.51C1154.37 249.92 1113.55 263.06 1070.62 259.84C1043.85 257.83 1021.1 245.21 1003.04 225.15C980.14 199.72 972.25 164.28 982.46 130.31C992.2 97.88 1018.19 72.34 1050.08 62.59C1075.65 54.78 1102.68 56.82 1126.75 67.18C1167.11 84.55 1183.05 123.63 1180.28 168.33L1045.34 168.35C1044.08 184.85 1053.23 198.54 1068.4 204.41ZM112.91 204.44C129.21 208.25 145.13 205.97 159.51 197.54L182.31 243.79C154.35 258.61 122.3 264.42 91.19 257.24C60.66 250.19 34.47 230.35 19.74 203.28C0.0 167.0 7.36 122.78 35.76 93.44C70.86 57.17 115.04 50.07 162.94 65.57C169.91 68.18 175.92 71.39 182.15 75.88L159.38 120.68C145.31 112.35 127.65 109.15 111.7 114.58C91.62 121.41 80.05 139.96 80.23 159.55C80.4 179.43 92.39 197.12 112.91 204.44ZM1425.94 260.2L1345.5 260.31L1302.98 203.03L1260.56 260.3L1180.1 260.26L1262.38 154.54L1191.87 58.14L1269.4 57.85L1303.03 104.82L1336.48 57.96L1414.12 58.15L1343.69 154.55L1425.94 260.2ZM963.53 122.18L930.79 122.18L930.79 260.3L869.95 260.3L869.95 122.18L847.89 122.18L847.89 75.03L869.95 75.03L869.95 69.74C869.95 46.93 876.95 29.61 890.93 17.78C904.94 5.92 925.45 0.0 952.5 0.0C957.0 0.0 960.33 0.11 962.46 0.33L962.46 48.47C950.83 47.83 942.65 49.36 937.92 53.12C933.17 56.9 930.79 63.63 930.79 73.39L930.79 75.03L963.53 75.03L963.53 122.18Z"/><path fill="#02a78e" d="M685.61 132.73C690.43 131.02 694.71 129.6 699.11 127.55C714.78 120.27 725.41 106.45 724.63 88.64C724.17 78.3 720.81 68.2 716.53 58.65C669.85 65.67 633.62 104.44 630.59 152.22L685.61 132.73ZM753.99 90.23C761.43 99.1 771.36 104.96 782.67 107.25C793.44 109.44 818.36 106.61 818.49 106.28C802.0 79.15 773.08 60.41 739.63 57.85C742.36 68.4 746.99 81.89 753.99 90.23ZM826.24 122.01C821.24 122.37 816.3 122.99 811.29 123.97C794.62 127.23 778.79 136.3 774.34 153.56C773.09 158.36 772.4 163.19 772.88 168.13L774.06 180.31L776.37 197.27C778.54 213.16 781.67 246.0 781.9 246.63C812.5 229.21 833.14 196.37 833.14 158.7C833.14 145.75 830.68 133.39 826.24 122.01ZM760.08 205.22C758.54 196.28 757.03 187.72 754.61 179.04C750.48 164.24 740.11 153.02 725.02 149.73C714.46 147.42 704.78 148.78 694.35 151.4C681.94 154.52 670.02 158.35 657.91 162.57C648.82 165.74 640.09 169.18 631.41 173.11C638.42 222.17 680.66 259.88 731.75 259.88C743.9 259.88 755.54 257.75 766.33 253.84C764.98 237.41 762.87 221.44 760.08 205.22Z"/></svg>